<?xml version="1.0" encoding="utf-8" standalone="no"?>
<!DOCTYPE svg PUBLIC "-//W3C//DTD SVG 1.1//EN"
  "http://www.w3.org/Graphics/SVG/1.1/DTD/svg11.dtd">
<!-- Created with matplotlib (https://matplotlib.org/) -->
<svg height="691.92pt" version="1.1" viewBox="0 0 1382.4 691.92" width="1382.4pt" xmlns="http://www.w3.org/2000/svg" xmlns:xlink="http://www.w3.org/1999/xlink">
 <metadata>
  <rdf:RDF xmlns:cc="http://creativecommons.org/ns#" xmlns:dc="http://purl.org/dc/elements/1.1/" xmlns:rdf="http://www.w3.org/1999/02/22-rdf-syntax-ns#">
   <cc:Work>
    <dc:type rdf:resource="http://purl.org/dc/dcmitype/StillImage"/>
    <dc:date>2020-10-28T11:32:35.797684</dc:date>
    <dc:format>image/svg+xml</dc:format>
    <dc:creator>
     <cc:Agent>
      <dc:title>Matplotlib v3.3.2, https://matplotlib.org/</dc:title>
     </cc:Agent>
    </dc:creator>
   </cc:Work>
  </rdf:RDF>
 </metadata>
 <defs>
  <style type="text/css">*{stroke-linecap:butt;stroke-linejoin:round;}</style>
 </defs>
 <g id="figure_1">
  <g id="patch_1">
   <path d="M 0 691.92 
L 1382.4 691.92 
L 1382.4 0 
L 0 0 
z
" style="fill:#ffffff;"/>
  </g>
  <g id="axes_1">
   <g id="patch_2">
    <path d="M 172.8 615.8088 
L 1244.16 615.8088 
L 1244.16 83.0304 
L 172.8 83.0304 
z
" style="fill:#ffffff;"/>
   </g>
   <g id="matplotlib.axis_1">
    <g id="xtick_1">
     <g id="line2d_1">
      <defs>
       <path d="M 0 0 
L 0 3.5 
" id="mce7a35d197" style="stroke:#000000;stroke-width:0.8;"/>
      </defs>
      <g>
       <use style="stroke:#000000;stroke-width:0.8;" x="278.79016" xlink:href="#mce7a35d197" y="615.8088"/>
      </g>
     </g>
     <g id="text_1">
      <!-- 0.02 -->
      <g transform="translate(267.657348 630.407237)scale(0.1 -0.1)">
       <defs>
        <path d="M 31.78125 66.40625 
Q 24.171875 66.40625 20.328125 58.90625 
Q 16.5 51.421875 16.5 36.375 
Q 16.5 21.390625 20.328125 13.890625 
Q 24.171875 6.390625 31.78125 6.390625 
Q 39.453125 6.390625 43.28125 13.890625 
Q 47.125 21.390625 47.125 36.375 
Q 47.125 51.421875 43.28125 58.90625 
Q 39.453125 66.40625 31.78125 66.40625 
z
M 31.78125 74.21875 
Q 44.046875 74.21875 50.515625 64.515625 
Q 56.984375 54.828125 56.984375 36.375 
Q 56.984375 17.96875 50.515625 8.265625 
Q 44.046875 -1.421875 31.78125 -1.421875 
Q 19.53125 -1.421875 13.0625 8.265625 
Q 6.59375 17.96875 6.59375 36.375 
Q 6.59375 54.828125 13.0625 64.515625 
Q 19.53125 74.21875 31.78125 74.21875 
z
" id="DejaVuSans-48"/>
        <path d="M 10.6875 12.40625 
L 21 12.40625 
L 21 0 
L 10.6875 0 
z
" id="DejaVuSans-46"/>
        <path d="M 19.1875 8.296875 
L 53.609375 8.296875 
L 53.609375 0 
L 7.328125 0 
L 7.328125 8.296875 
Q 12.9375 14.109375 22.625 23.890625 
Q 32.328125 33.6875 34.8125 36.53125 
Q 39.546875 41.84375 41.421875 45.53125 
Q 43.3125 49.21875 43.3125 52.78125 
Q 43.3125 58.59375 39.234375 62.25 
Q 35.15625 65.921875 28.609375 65.921875 
Q 23.96875 65.921875 18.8125 64.3125 
Q 13.671875 62.703125 7.8125 59.421875 
L 7.8125 69.390625 
Q 13.765625 71.78125 18.9375 73 
Q 24.125 74.21875 28.421875 74.21875 
Q 39.75 74.21875 46.484375 68.546875 
Q 53.21875 62.890625 53.21875 53.421875 
Q 53.21875 48.921875 51.53125 44.890625 
Q 49.859375 40.875 45.40625 35.40625 
Q 44.1875 33.984375 37.640625 27.21875 
Q 31.109375 20.453125 19.1875 8.296875 
z
" id="DejaVuSans-50"/>
       </defs>
       <use xlink:href="#DejaVuSans-48"/>
       <use x="63.623047" xlink:href="#DejaVuSans-46"/>
       <use x="95.410156" xlink:href="#DejaVuSans-48"/>
       <use x="159.033203" xlink:href="#DejaVuSans-50"/>
      </g>
     </g>
    </g>
    <g id="xtick_2">
     <g id="line2d_2">
      <g>
       <use style="stroke:#000000;stroke-width:0.8;" x="507.958075" xlink:href="#mce7a35d197" y="615.8088"/>
      </g>
     </g>
     <g id="text_2">
      <!-- 0.04 -->
      <g transform="translate(496.825262 630.407237)scale(0.1 -0.1)">
       <defs>
        <path d="M 37.796875 64.3125 
L 12.890625 25.390625 
L 37.796875 25.390625 
z
M 35.203125 72.90625 
L 47.609375 72.90625 
L 47.609375 25.390625 
L 58.015625 25.390625 
L 58.015625 17.1875 
L 47.609375 17.1875 
L 47.609375 0 
L 37.796875 0 
L 37.796875 17.1875 
L 4.890625 17.1875 
L 4.890625 26.703125 
z
" id="DejaVuSans-52"/>
       </defs>
       <use xlink:href="#DejaVuSans-48"/>
       <use x="63.623047" xlink:href="#DejaVuSans-46"/>
       <use x="95.410156" xlink:href="#DejaVuSans-48"/>
       <use x="159.033203" xlink:href="#DejaVuSans-52"/>
      </g>
     </g>
    </g>
    <g id="xtick_3">
     <g id="line2d_3">
      <g>
       <use style="stroke:#000000;stroke-width:0.8;" x="737.125989" xlink:href="#mce7a35d197" y="615.8088"/>
      </g>
     </g>
     <g id="text_3">
      <!-- 0.06 -->
      <g transform="translate(725.993177 630.407237)scale(0.1 -0.1)">
       <defs>
        <path d="M 33.015625 40.375 
Q 26.375 40.375 22.484375 35.828125 
Q 18.609375 31.296875 18.609375 23.390625 
Q 18.609375 15.53125 22.484375 10.953125 
Q 26.375 6.390625 33.015625 6.390625 
Q 39.65625 6.390625 43.53125 10.953125 
Q 47.40625 15.53125 47.40625 23.390625 
Q 47.40625 31.296875 43.53125 35.828125 
Q 39.65625 40.375 33.015625 40.375 
z
M 52.59375 71.296875 
L 52.59375 62.3125 
Q 48.875 64.0625 45.09375 64.984375 
Q 41.3125 65.921875 37.59375 65.921875 
Q 27.828125 65.921875 22.671875 59.328125 
Q 17.53125 52.734375 16.796875 39.40625 
Q 19.671875 43.65625 24.015625 45.921875 
Q 28.375 48.1875 33.59375 48.1875 
Q 44.578125 48.1875 50.953125 41.515625 
Q 57.328125 34.859375 57.328125 23.390625 
Q 57.328125 12.15625 50.6875 5.359375 
Q 44.046875 -1.421875 33.015625 -1.421875 
Q 20.359375 -1.421875 13.671875 8.265625 
Q 6.984375 17.96875 6.984375 36.375 
Q 6.984375 53.65625 15.1875 63.9375 
Q 23.390625 74.21875 37.203125 74.21875 
Q 40.921875 74.21875 44.703125 73.484375 
Q 48.484375 72.75 52.59375 71.296875 
z
" id="DejaVuSans-54"/>
       </defs>
       <use xlink:href="#DejaVuSans-48"/>
       <use x="63.623047" xlink:href="#DejaVuSans-46"/>
       <use x="95.410156" xlink:href="#DejaVuSans-48"/>
       <use x="159.033203" xlink:href="#DejaVuSans-54"/>
      </g>
     </g>
    </g>
    <g id="xtick_4">
     <g id="line2d_4">
      <g>
       <use style="stroke:#000000;stroke-width:0.8;" x="966.293904" xlink:href="#mce7a35d197" y="615.8088"/>
      </g>
     </g>
     <g id="text_4">
      <!-- 0.08 -->
      <g transform="translate(955.161091 630.407237)scale(0.1 -0.1)">
       <defs>
        <path d="M 31.78125 34.625 
Q 24.75 34.625 20.71875 30.859375 
Q 16.703125 27.09375 16.703125 20.515625 
Q 16.703125 13.921875 20.71875 10.15625 
Q 24.75 6.390625 31.78125 6.390625 
Q 38.8125 6.390625 42.859375 10.171875 
Q 46.921875 13.96875 46.921875 20.515625 
Q 46.921875 27.09375 42.890625 30.859375 
Q 38.875 34.625 31.78125 34.625 
z
M 21.921875 38.8125 
Q 15.578125 40.375 12.03125 44.71875 
Q 8.5 49.078125 8.5 55.328125 
Q 8.5 64.0625 14.71875 69.140625 
Q 20.953125 74.21875 31.78125 74.21875 
Q 42.671875 74.21875 48.875 69.140625 
Q 55.078125 64.0625 55.078125 55.328125 
Q 55.078125 49.078125 51.53125 44.71875 
Q 48 40.375 41.703125 38.8125 
Q 48.828125 37.15625 52.796875 32.3125 
Q 56.78125 27.484375 56.78125 20.515625 
Q 56.78125 9.90625 50.3125 4.234375 
Q 43.84375 -1.421875 31.78125 -1.421875 
Q 19.734375 -1.421875 13.25 4.234375 
Q 6.78125 9.90625 6.78125 20.515625 
Q 6.78125 27.484375 10.78125 32.3125 
Q 14.796875 37.15625 21.921875 38.8125 
z
M 18.3125 54.390625 
Q 18.3125 48.734375 21.84375 45.5625 
Q 25.390625 42.390625 31.78125 42.390625 
Q 38.140625 42.390625 41.71875 45.5625 
Q 45.3125 48.734375 45.3125 54.390625 
Q 45.3125 60.0625 41.71875 63.234375 
Q 38.140625 66.40625 31.78125 66.40625 
Q 25.390625 66.40625 21.84375 63.234375 
Q 18.3125 60.0625 18.3125 54.390625 
z
" id="DejaVuSans-56"/>
       </defs>
       <use xlink:href="#DejaVuSans-48"/>
       <use x="63.623047" xlink:href="#DejaVuSans-46"/>
       <use x="95.410156" xlink:href="#DejaVuSans-48"/>
       <use x="159.033203" xlink:href="#DejaVuSans-56"/>
      </g>
     </g>
    </g>
    <g id="xtick_5">
     <g id="line2d_5">
      <g>
       <use style="stroke:#000000;stroke-width:0.8;" x="1195.461818" xlink:href="#mce7a35d197" y="615.8088"/>
      </g>
     </g>
     <g id="text_5">
      <!-- 0.10 -->
      <g transform="translate(1184.329006 630.407237)scale(0.1 -0.1)">
       <defs>
        <path d="M 12.40625 8.296875 
L 28.515625 8.296875 
L 28.515625 63.921875 
L 10.984375 60.40625 
L 10.984375 69.390625 
L 28.421875 72.90625 
L 38.28125 72.90625 
L 38.28125 8.296875 
L 54.390625 8.296875 
L 54.390625 0 
L 12.40625 0 
z
" id="DejaVuSans-49"/>
       </defs>
       <use xlink:href="#DejaVuSans-48"/>
       <use x="63.623047" xlink:href="#DejaVuSans-46"/>
       <use x="95.410156" xlink:href="#DejaVuSans-49"/>
       <use x="159.033203" xlink:href="#DejaVuSans-48"/>
      </g>
     </g>
    </g>
   </g>
   <g id="matplotlib.axis_2">
    <g id="ytick_1">
     <g id="line2d_6">
      <defs>
       <path d="M 0 0 
L -3.5 0 
" id="m2e36c69921" style="stroke:#000000;stroke-width:0.8;"/>
      </defs>
      <g>
       <use style="stroke:#000000;stroke-width:0.8;" x="172.8" xlink:href="#m2e36c69921" y="495.782524"/>
      </g>
     </g>
     <g id="text_6">
      <!-- $\mathdefault{10^{-2}}$ -->
      <g transform="translate(142.3 499.581742)scale(0.1 -0.1)">
       <defs>
        <path d="M 10.59375 35.5 
L 73.1875 35.5 
L 73.1875 27.203125 
L 10.59375 27.203125 
z
" id="DejaVuSans-8722"/>
       </defs>
       <use transform="translate(0 0.765625)" xlink:href="#DejaVuSans-49"/>
       <use transform="translate(63.623047 0.765625)" xlink:href="#DejaVuSans-48"/>
       <use transform="translate(128.203125 39.046875)scale(0.7)" xlink:href="#DejaVuSans-8722"/>
       <use transform="translate(186.855469 39.046875)scale(0.7)" xlink:href="#DejaVuSans-50"/>
      </g>
     </g>
    </g>
    <g id="ytick_2">
     <g id="line2d_7">
      <g>
       <use style="stroke:#000000;stroke-width:0.8;" x="172.8" xlink:href="#m2e36c69921" y="194.139027"/>
      </g>
     </g>
     <g id="text_7">
      <!-- $\mathdefault{10^{-1}}$ -->
      <g transform="translate(142.3 197.938245)scale(0.1 -0.1)">
       <use transform="translate(0 0.684375)" xlink:href="#DejaVuSans-49"/>
       <use transform="translate(63.623047 0.684375)" xlink:href="#DejaVuSans-48"/>
       <use transform="translate(128.203125 38.965625)scale(0.7)" xlink:href="#DejaVuSans-8722"/>
       <use transform="translate(186.855469 38.965625)scale(0.7)" xlink:href="#DejaVuSans-49"/>
      </g>
     </g>
    </g>
    <g id="ytick_3">
     <g id="line2d_8">
      <defs>
       <path d="M 0 0 
L -2 0 
" id="m29beb10cb8" style="stroke:#000000;stroke-width:0.6;"/>
      </defs>
      <g>
       <use style="stroke:#000000;stroke-width:0.6;" x="172.8" xlink:href="#m29beb10cb8" y="586.586264"/>
      </g>
     </g>
    </g>
    <g id="ytick_4">
     <g id="line2d_9">
      <g>
       <use style="stroke:#000000;stroke-width:0.6;" x="172.8" xlink:href="#m29beb10cb8" y="562.701756"/>
      </g>
     </g>
    </g>
    <g id="ytick_5">
     <g id="line2d_10">
      <g>
       <use style="stroke:#000000;stroke-width:0.6;" x="172.8" xlink:href="#m29beb10cb8" y="542.507693"/>
      </g>
     </g>
    </g>
    <g id="ytick_6">
     <g id="line2d_11">
      <g>
       <use style="stroke:#000000;stroke-width:0.6;" x="172.8" xlink:href="#m29beb10cb8" y="525.014799"/>
      </g>
     </g>
    </g>
    <g id="ytick_7">
     <g id="line2d_12">
      <g>
       <use style="stroke:#000000;stroke-width:0.6;" x="172.8" xlink:href="#m29beb10cb8" y="509.584973"/>
      </g>
     </g>
    </g>
    <g id="ytick_8">
     <g id="line2d_13">
      <g>
       <use style="stroke:#000000;stroke-width:0.6;" x="172.8" xlink:href="#m29beb10cb8" y="404.978783"/>
      </g>
     </g>
    </g>
    <g id="ytick_9">
     <g id="line2d_14">
      <g>
       <use style="stroke:#000000;stroke-width:0.6;" x="172.8" xlink:href="#m29beb10cb8" y="351.862"/>
      </g>
     </g>
    </g>
    <g id="ytick_10">
     <g id="line2d_15">
      <g>
       <use style="stroke:#000000;stroke-width:0.6;" x="172.8" xlink:href="#m29beb10cb8" y="314.175042"/>
      </g>
     </g>
    </g>
    <g id="ytick_11">
     <g id="line2d_16">
      <g>
       <use style="stroke:#000000;stroke-width:0.6;" x="172.8" xlink:href="#m29beb10cb8" y="284.942767"/>
      </g>
     </g>
    </g>
    <g id="ytick_12">
     <g id="line2d_17">
      <g>
       <use style="stroke:#000000;stroke-width:0.6;" x="172.8" xlink:href="#m29beb10cb8" y="261.058259"/>
      </g>
     </g>
    </g>
    <g id="ytick_13">
     <g id="line2d_18">
      <g>
       <use style="stroke:#000000;stroke-width:0.6;" x="172.8" xlink:href="#m29beb10cb8" y="240.864196"/>
      </g>
     </g>
    </g>
    <g id="ytick_14">
     <g id="line2d_19">
      <g>
       <use style="stroke:#000000;stroke-width:0.6;" x="172.8" xlink:href="#m29beb10cb8" y="223.371302"/>
      </g>
     </g>
    </g>
    <g id="ytick_15">
     <g id="line2d_20">
      <g>
       <use style="stroke:#000000;stroke-width:0.6;" x="172.8" xlink:href="#m29beb10cb8" y="207.941476"/>
      </g>
     </g>
    </g>
    <g id="ytick_16">
     <g id="line2d_21">
      <g>
       <use style="stroke:#000000;stroke-width:0.6;" x="172.8" xlink:href="#m29beb10cb8" y="103.335286"/>
      </g>
     </g>
    </g>
   </g>
   <g id="line2d_22">
    <path clip-path="url(#pb07d9bab49)" d="M 221.498182 580.492044 
L 221.836932 572.110281 
L 222.19305 591.5916 
L 222.567426 503.016598 
L 222.960997 485.820802 
L 223.374747 482.416022 
L 223.809711 522.976101 
L 224.266975 474.842445 
L 224.747684 545.701121 
L 225.253039 544.540239 
L 225.784305 468.304136 
L 226.342809 499.770362 
L 226.929948 526.058646 
L 227.54719 451.924746 
L 228.19608 465.858943 
L 228.878238 405.003153 
L 229.595371 440.6467 
L 230.349273 466.20414 
L 231.141828 456.014854 
L 231.975018 406.713936 
L 232.850927 397.940643 
L 233.771744 433.719107 
L 234.739773 431.223753 
L 235.757434 461.252396 
L 236.827271 414.870015 
L 237.95196 525.363673 
L 239.134314 378.39495 
L 240.377287 430.50396 
L 241.683989 427.133865 
L 243.057688 406.334912 
L 244.501817 365.412984 
L 246.019989 544.032282 
L 247.615998 458.28038 
L 249.293837 515.029305 
L 251.057701 483.023921 
L 252.912 518.778878 
L 254.86137 425.512208 
L 256.910687 363.656529 
L 259.065075 492.795219 
L 261.329921 458.296953 
L 263.710888 391.566802 
L 266.213929 452.104053 
L 268.845304 495.893967 
L 271.611593 372.374135 
L 274.519712 386.662977 
L 277.576934 403.527276 
L 280.790903 386.579297 
L 284.169656 332.089444 
L 287.721641 413.896371 
L 291.45574 366.07696 
L 295.381291 297.688785 
L 299.508109 361.096145 
L 303.846513 302.733055 
L 308.407352 342.420084 
L 313.20203 316.205108 
L 318.242537 262.562571 
L 323.541476 289.338663 
L 329.112097 267.550994 
L 334.96833 295.963913 
L 341.124819 225.381958 
L 347.596958 303.083797 
L 354.40093 286.643268 
L 361.55375 298.341512 
L 369.073302 305.947992 
L 376.97839 221.39355 
L 385.288781 219.367158 
L 394.025254 190.766654 
L 403.209656 217.305713 
L 412.864952 214.006925 
L 423.015286 165.870007 
L 433.686039 288.633211 
L 444.903893 183.094618 
L 456.696899 159.143763 
L 469.094545 148.410076 
L 482.127831 175.73954 
L 495.829349 164.15278 
L 510.233359 153.179253 
L 525.375878 149.430725 
L 541.29477 152.799536 
L 558.029842 147.413858 
L 575.622939 147.21185 
L 594.118053 149.862566 
L 613.561432 143.627982 
L 634.001695 150.404378 
L 655.489952 149.476926 
L 678.079936 132.998771 
L 701.828132 140.546579 
L 726.793925 145.606903 
L 753.039742 132.21528 
L 780.63121 132.21528 
L 809.637324 138.133274 
L 840.130612 153.805472 
L 872.187325 139.471905 
L 905.887621 141.775298 
L 941.315767 136.928094 
L 978.560354 134.432741 
L 1017.714511 128.001898 
L 1058.876145 135.259255 
L 1102.148181 149.986212 
L 1147.638822 132.95803 
L 1195.461818 132.307894 
" style="fill:none;stroke:#ff0000;stroke-linecap:square;stroke-width:1.5;"/>
   </g>
   <g id="line2d_23">
    <path clip-path="url(#pb07d9bab49)" d="M 221.498182 547.816929 
L 221.836932 544.080396 
L 222.19305 540.271495 
L 222.567426 536.391337 
L 222.960997 532.44113 
L 223.374747 528.422175 
L 223.809711 524.335863 
L 224.266975 520.183671 
L 224.747684 515.967158 
L 225.253039 511.687956 
L 225.784305 507.347775 
L 226.342809 502.948387 
L 226.929948 498.491629 
L 227.54719 493.979397 
L 228.19608 489.413638 
L 228.878238 484.796349 
L 229.595371 480.12957 
L 230.349273 475.415381 
L 231.141828 470.655897 
L 231.975018 465.853263 
L 232.850927 461.009652 
L 233.771744 456.127258 
L 234.739773 451.208296 
L 235.757434 446.254995 
L 236.827271 441.269598 
L 237.95196 436.254354 
L 239.134314 431.21152 
L 240.377287 426.143358 
L 241.683989 421.052125 
L 243.057688 415.940082 
L 244.501817 410.809482 
L 246.019989 405.662572 
L 247.615998 400.501591 
L 249.293837 395.328768 
L 251.057701 390.146317 
L 252.912 384.95644 
L 254.86137 379.761321 
L 256.910687 374.563127 
L 259.065075 369.364007 
L 261.329921 364.166085 
L 263.710888 358.971466 
L 266.213929 353.782228 
L 268.845304 348.600424 
L 271.611593 343.428078 
L 274.519712 338.267186 
L 277.576934 333.119711 
L 280.790903 327.987584 
L 284.169656 322.872702 
L 287.721641 317.776923 
L 291.45574 312.702068 
L 295.381291 307.649918 
L 299.508109 302.622209 
L 303.846513 297.620636 
L 308.407352 292.646846 
L 313.20203 287.702438 
L 318.242537 282.788961 
L 323.541476 277.907913 
L 329.112097 273.060738 
L 334.96833 268.248823 
L 341.124819 263.473501 
L 347.596958 258.736044 
L 354.40093 254.037664 
L 361.55375 249.379513 
L 369.073302 244.76268 
L 376.97839 240.188189 
L 385.288781 235.657002 
L 394.025254 231.170013 
L 403.209656 226.728053 
L 412.864952 222.331885 
L 423.015286 217.982207 
L 433.686039 213.67965 
L 444.903893 209.424781 
L 456.696899 205.218099 
L 469.094545 201.060041 
L 482.127831 196.950978 
L 495.829349 192.89122 
L 510.233359 188.881015 
L 525.375878 184.92055 
L 541.29477 181.009954 
L 558.029842 177.149299 
L 575.622939 173.338603 
L 594.118053 169.57783 
L 613.561432 165.866893 
L 634.001695 162.205656 
L 655.489952 158.593937 
L 678.079936 155.031509 
L 701.828132 151.518104 
L 726.793925 148.053412 
L 753.039742 144.637089 
L 780.63121 141.268755 
L 809.637324 137.947995 
L 840.130612 134.674368 
L 872.187325 131.447402 
L 905.887621 128.266602 
L 941.315767 125.131447 
L 978.560354 122.041398 
L 1017.714511 118.995894 
L 1058.876145 115.99436 
L 1102.148181 113.036204 
L 1147.638822 110.120823 
L 1195.461818 107.2476 
" style="fill:none;stroke:#0000ff;stroke-linecap:square;stroke-width:1.5;"/>
   </g>
   <g id="patch_3">
    <path d="M 172.8 615.8088 
L 172.8 83.0304 
" style="fill:none;stroke:#000000;stroke-linecap:square;stroke-linejoin:miter;stroke-width:0.8;"/>
   </g>
   <g id="patch_4">
    <path d="M 1244.16 615.8088 
L 1244.16 83.0304 
" style="fill:none;stroke:#000000;stroke-linecap:square;stroke-linejoin:miter;stroke-width:0.8;"/>
   </g>
   <g id="patch_5">
    <path d="M 172.8 615.8088 
L 1244.16 615.8088 
" style="fill:none;stroke:#000000;stroke-linecap:square;stroke-linejoin:miter;stroke-width:0.8;"/>
   </g>
   <g id="patch_6">
    <path d="M 172.8 83.0304 
L 1244.16 83.0304 
" style="fill:none;stroke:#000000;stroke-linecap:square;stroke-linejoin:miter;stroke-width:0.8;"/>
   </g>
  </g>
 </g>
 <defs>
  <clipPath id="pb07d9bab49">
   <rect height="532.7784" width="1071.36" x="172.8" y="83.0304"/>
  </clipPath>
 </defs>
</svg>
